<svg data-v-423bf9ae="" xmlns="http://www.w3.org/2000/svg" viewBox="0 0 440 90" class="iconLeft"><!----><!----><!----><g data-v-423bf9ae="" id="3cda7620-3987-45c8-b166-9c766fe1a08b" fill="#000000" transform="matrix(4.548900827050398,0,0,4.548900827050398,106.31539031378213,-1.8764227187209244)"><path d="M8.67 6.40L8.67 6.40Q10.07 6.40 10.75 7.24L10.75 7.24L10.75 7.24Q11.42 8.09 11.42 9.62L11.42 9.62L11.42 13.51L9.69 13.51L9.69 9.74L9.69 9.74Q9.69 8.75 9.38 8.29L9.38 8.29L9.38 8.29Q9.07 7.83 8.37 7.83L8.37 7.83L8.37 7.83Q7.69 7.83 7.34 8.29L7.34 8.29L7.34 8.29Q6.99 8.76 6.99 9.62L6.99 9.62L6.99 13.51L5.25 13.51L5.25 9.74L5.25 9.74Q5.25 8.75 4.93 8.29L4.93 8.29L4.93 8.29Q4.61 7.83 3.91 7.83L3.91 7.83L3.91 7.83Q3.08 7.83 2.55 8.43L2.55 8.43L2.55 13.51L0.81 13.51L0.81 6.51L2.30 6.51L2.35 7.07L2.35 7.07Q3.30 6.40 4.41 6.40L4.41 6.40L4.41 6.40Q5.75 6.40 6.41 7.36L6.41 7.36L6.41 7.36Q6.78 6.90 7.36 6.65L7.36 6.65L7.36 6.65Q7.95 6.40 8.67 6.40L8.67 6.40ZM13.54 16.90L15.09 13.05L12.18 6.51L14.11 6.51L15.90 11.02L17.72 6.51L19.66 6.51L15.27 16.90L13.54 16.90ZM25.56 13.51L22.88 6.51L24.58 6.51L26.31 11.35L28.03 6.51L29.74 6.51L27.05 13.51L25.56 13.51ZM32.10 13.65L32.10 13.65Q31.23 13.65 30.65 13.08L30.65 13.08L30.65 13.08Q30.07 12.52 30.07 11.55L30.07 11.55L30.07 11.55Q30.07 10.64 30.73 10.09L30.73 10.09L30.73 10.09Q31.39 9.53 32.28 9.30L32.28 9.30L32.28 9.30Q33.18 9.07 34.01 9.04L34.01 9.04L34.01 9.04Q33.98 8.43 33.69 8.16L33.69 8.16L33.69 8.16Q33.40 7.90 32.75 7.90L32.75 7.90L32.75 7.90Q32.28 7.90 31.84 8.02L31.84 8.02L31.84 8.02Q31.40 8.15 30.83 8.43L30.83 8.43L30.67 7.01L30.67 7.01Q31.95 6.40 33.22 6.40L33.22 6.40L33.22 6.40Q34.45 6.40 35.10 7.07L35.10 7.07L35.10 7.07Q35.76 7.74 35.76 9.21L35.76 9.21L35.76 11.10L35.76 11.10Q35.76 11.63 35.80 11.87L35.80 11.87L35.80 11.87Q35.85 12.10 35.97 12.16L35.97 12.16L35.97 12.16Q36.09 12.22 36.37 12.22L36.37 12.22L36.60 12.22L36.44 13.65L35.81 13.65L35.81 13.65Q35.24 13.65 34.85 13.43L34.85 13.43L34.85 13.43Q34.45 13.22 34.24 12.84L34.24 12.84L34.24 12.84Q33.91 13.22 33.33 13.43L33.33 13.43L33.33 13.43Q32.75 13.65 32.10 13.65L32.10 13.65ZM32.83 12.32L32.83 12.32Q33.10 12.32 33.43 12.19L33.43 12.19L33.43 12.19Q33.77 12.05 34.02 11.82L34.02 11.82L34.02 10.22L34.02 10.22Q33.18 10.26 32.54 10.58L32.54 10.58L32.54 10.58Q31.89 10.91 31.89 11.48L31.89 11.48L31.89 11.48Q31.89 11.91 32.12 12.12L32.12 12.12L32.12 12.12Q32.34 12.32 32.83 12.32L32.83 12.32ZM40.81 13.65L40.81 13.65Q39.65 13.65 38.81 13.17L38.81 13.17L38.81 13.17Q37.98 12.68 37.56 11.86L37.56 11.86L37.56 11.86Q37.14 11.03 37.14 10.02L37.14 10.02L37.14 10.02Q37.14 9.00 37.56 8.17L37.56 8.17L37.56 8.17Q37.98 7.34 38.82 6.85L38.82 6.85L38.82 6.85Q39.66 6.37 40.87 6.37L40.87 6.37L40.87 6.37Q41.94 6.37 42.74 6.82L42.74 6.82L42.60 8.22L42.60 8.22Q41.85 7.83 41.03 7.83L41.03 7.83L41.03 7.83Q40.04 7.83 39.48 8.43L39.48 8.43L39.48 8.43Q38.92 9.03 38.92 10.02L38.92 10.02L38.92 10.02Q38.92 10.98 39.49 11.60L39.49 11.60L39.49 11.60Q40.07 12.22 41.02 12.22L41.02 12.22L41.02 12.22Q41.82 12.22 42.62 11.76L42.62 11.76L42.77 13.23L42.77 13.23Q42.39 13.43 41.88 13.54L41.88 13.54L41.88 13.54Q41.37 13.65 40.81 13.65L40.81 13.65ZM45.44 13.65L45.44 13.65Q44.58 13.65 43.99 13.08L43.99 13.08L43.99 13.08Q43.41 12.52 43.41 11.55L43.41 11.55L43.41 11.55Q43.41 10.64 44.07 10.09L44.07 10.09L44.07 10.09Q44.73 9.53 45.63 9.30L45.63 9.30L45.63 9.30Q46.52 9.07 47.35 9.04L47.35 9.04L47.35 9.04Q47.32 8.43 47.03 8.16L47.03 8.16L47.03 8.16Q46.75 7.90 46.09 7.90L46.09 7.90L46.09 7.90Q45.63 7.90 45.18 8.02L45.18 8.02L45.18 8.02Q44.74 8.15 44.17 8.43L44.17 8.43L44.02 7.01L44.02 7.01Q45.29 6.40 46.56 6.40L46.56 6.40L46.56 6.40Q47.80 6.40 48.45 7.07L48.45 7.07L48.45 7.07Q49.10 7.74 49.10 9.21L49.10 9.21L49.10 11.10L49.10 11.10Q49.10 11.63 49.15 11.87L49.15 11.87L49.15 11.87Q49.20 12.10 49.31 12.16L49.31 12.16L49.31 12.16Q49.43 12.22 49.71 12.22L49.71 12.22L49.94 12.22L49.78 13.65L49.15 13.65L49.15 13.65Q48.58 13.65 48.19 13.43L48.19 13.43L48.19 13.43Q47.80 13.22 47.59 12.84L47.59 12.84L47.59 12.84Q47.25 13.22 46.67 13.43L46.67 13.43L46.67 13.43Q46.09 13.65 45.44 13.65L45.44 13.65ZM46.17 12.32L46.17 12.32Q46.44 12.32 46.77 12.19L46.77 12.19L46.77 12.19Q47.11 12.05 47.36 11.82L47.36 11.82L47.36 10.22L47.36 10.22Q46.52 10.26 45.88 10.58L45.88 10.58L45.88 10.58Q45.23 10.91 45.23 11.48L45.23 11.48L45.23 11.48Q45.23 11.91 45.46 12.12L45.46 12.12L45.46 12.12Q45.68 12.32 46.17 12.32L46.17 12.32ZM53.19 13.65L53.19 13.65Q52.26 13.65 51.79 13.11L51.79 13.11L51.79 13.11Q51.31 12.57 51.31 11.82L51.31 11.82L51.31 7.94L50.32 7.94L50.47 6.51L51.31 6.51L51.31 4.97L53.05 4.79L53.05 6.51L54.59 6.51L54.59 7.94L53.05 7.94L53.05 11.10L53.05 11.10Q53.05 11.66 53.11 11.88L53.11 11.88L53.11 11.88Q53.17 12.10 53.38 12.16L53.38 12.16L53.38 12.16Q53.58 12.22 54.11 12.22L54.11 12.22L54.59 12.22L54.43 13.65L53.19 13.65ZM55.72 5.45L55.72 3.71L57.46 3.71L57.46 5.45L55.72 5.45ZM55.72 13.51L55.72 6.51L57.46 6.51L57.46 13.51L55.72 13.51ZM62.26 13.65L62.26 13.65Q61.15 13.65 60.34 13.16L60.34 13.16L60.34 13.16Q59.53 12.67 59.09 11.84L59.09 11.84L59.09 11.84Q58.66 11.02 58.66 10.02L58.66 10.02L58.66 10.02Q58.66 9.03 59.09 8.19L59.09 8.19L59.09 8.19Q59.53 7.35 60.34 6.86L60.34 6.86L60.34 6.86Q61.15 6.37 62.26 6.37L62.26 6.37L62.26 6.37Q63.36 6.37 64.18 6.86L64.18 6.86L64.18 6.86Q64.99 7.35 65.42 8.19L65.42 8.19L65.42 8.19Q65.86 9.03 65.86 10.02L65.86 10.02L65.86 10.02Q65.86 11.02 65.42 11.84L65.42 11.84L65.42 11.84Q64.99 12.67 64.18 13.16L64.18 13.16L64.18 13.16Q63.36 13.65 62.26 13.65L62.26 13.65ZM62.26 12.22L62.26 12.22Q63.11 12.22 63.59 11.62L63.59 11.62L63.59 11.62Q64.08 11.02 64.08 10.02L64.08 10.02L64.08 10.02Q64.08 9.02 63.59 8.41L63.59 8.41L63.59 8.41Q63.11 7.80 62.26 7.80L62.26 7.80L62.26 7.80Q61.40 7.80 60.92 8.41L60.92 8.41L60.92 8.41Q60.44 9.02 60.44 10.02L60.44 10.02L60.44 10.02Q60.44 11.02 60.92 11.62L60.92 11.62L60.92 11.62Q61.40 12.22 62.26 12.22L62.26 12.22ZM70.59 6.40L70.59 6.40Q71.89 6.40 72.56 7.27L72.56 7.27L72.56 7.27Q73.23 8.13 73.23 9.60L73.23 9.60L73.23 13.51L71.50 13.51L71.50 9.74L71.50 9.74Q71.50 8.76 71.17 8.29L71.17 8.29L71.17 8.29Q70.84 7.83 70.11 7.83L70.11 7.83L70.11 7.83Q69.31 7.83 68.80 8.43L68.80 8.43L68.80 13.51L67.06 13.51L67.06 6.51L68.68 6.51L68.71 7L68.71 7Q69.59 6.40 70.59 6.40L70.59 6.40Z"></path></g><defs data-v-423bf9ae=""><linearGradient data-v-423bf9ae="" gradientTransform="rotate(25)" id="9fed9c99-a498-49eb-9d0f-ccaf36636e99" x1="0%" y1="0%" x2="100%" y2="0%"><stop data-v-423bf9ae="" offset="0%" style="stop-color: rgb(0, 102, 120); stop-opacity: 1;"></stop><stop data-v-423bf9ae="" offset="100%" style="stop-color: rgb(79, 168, 255); stop-opacity: 1;"></stop></linearGradient></defs><g data-v-423bf9ae="" id="31bb19a3-8618-4601-8643-8763d79f4144" transform="matrix(2.8125,0,0,2.8125,0,0)" stroke="none" fill="url(#9fed9c99-a498-49eb-9d0f-ccaf36636e99)"><path d="M16 32c8.837 0 16-7.163 16-16S24.837 0 16 0 0 7.163 0 16s7.163 16 16 16zM14.817 6.421h2v8.886h8.887v2H14.817V6.421zm-5.959.437h2v14.283h14.283v2H8.858V6.858z"></path></g><!----></svg>