<svg data-v-423bf9ae="" xmlns="http://www.w3.org/2000/svg" viewBox="0 0 374.8996110710733 183" class="iconAboveSlogan"><!----><!----><!----><g data-v-423bf9ae="" id="f3b9b635-fe98-46e1-8933-dba5c58135c4" fill="black" transform="matrix(4.460966289706529,0,0,4.460966289706529,-4.996288144411523,89.3048359341698)"><path d="M12.17 3.92L8.33 3.92L6.69 11.13L5.05 3.92L1.12 3.92L1.12 13.58L3.64 13.58L3.64 9.52C3.64 8.68 3.64 7.43 3.61 6.45C3.77 7.43 4.05 8.68 4.27 9.52L5.35 13.58L7.94 13.58L9.00 9.52C9.23 8.67 9.51 7.43 9.67 6.45C9.65 7.43 9.65 8.68 9.65 9.52L9.65 13.58L12.17 13.58ZM21.55 6.10L18.79 6.10L17.26 11.58L15.72 6.10L12.92 6.10L16.02 13.92L15.92 14.13C15.68 14.66 15.27 14.85 14.69 14.85C14.43 14.85 14.21 14.85 14 14.83L14 16.45C14.36 16.51 14.66 16.52 15.06 16.52C16.84 16.52 17.65 15.95 18.59 13.58ZM30.91 13.58L34.40 3.92L31.72 3.92L29.40 11.63L27.09 3.92L24.35 3.92L27.83 13.58ZM38.96 13.58L41.43 13.58C41.31 12.75 41.29 12.25 41.29 11.69L41.29 9.59C41.29 9.13 41.27 8.69 41.24 8.32C41.13 6.96 40.32 5.91 37.95 5.91C36.06 5.91 34.51 6.90 34.50 8.65L36.88 8.64C36.92 7.99 37.25 7.62 37.84 7.62C38.39 7.62 38.70 7.95 38.74 8.33C38.77 8.57 38.77 8.72 38.77 8.88L38.77 8.99L38.29 8.99C35.76 8.99 34.24 9.97 34.24 11.56C34.24 13.01 35.41 13.78 36.64 13.78C37.32 13.78 37.95 13.61 38.49 13.27L38.79 12.49ZM37.67 12.07C37.17 12.07 36.82 11.82 36.82 11.37C36.82 10.63 37.63 10.33 38.77 10.42L38.77 10.91C38.77 11.69 38.18 12.07 37.67 12.07ZM46.31 5.91C44.11 5.91 42.38 7.35 42.38 9.93C42.38 12.39 44.00 13.78 46.14 13.78C48.17 13.78 49.67 12.77 49.95 10.84L47.47 10.84C47.33 11.65 46.86 12.07 46.28 12.07C45.43 12.07 44.95 11.37 44.95 9.77C44.95 8.33 45.42 7.62 46.26 7.62C46.89 7.62 47.38 7.98 47.49 8.96L49.92 8.96C49.85 7.28 48.51 5.91 46.31 5.91ZM55.40 13.58L57.86 13.58C57.75 12.75 57.72 12.25 57.72 11.69L57.72 9.59C57.72 9.13 57.71 8.69 57.68 8.32C57.57 6.96 56.76 5.91 54.39 5.91C52.50 5.91 50.95 6.90 50.93 8.65L53.31 8.64C53.35 7.99 53.69 7.62 54.28 7.62C54.82 7.62 55.13 7.95 55.17 8.33C55.20 8.57 55.20 8.72 55.20 8.88L55.20 8.99L54.73 8.99C52.19 8.99 50.68 9.97 50.68 11.56C50.68 13.01 51.84 13.78 53.07 13.78C53.76 13.78 54.39 13.61 54.92 13.27L55.23 12.49ZM54.11 12.07C53.61 12.07 53.26 11.82 53.26 11.37C53.26 10.63 54.07 10.33 55.20 10.42L55.20 10.91C55.20 11.69 54.61 12.07 54.11 12.07ZM62.26 7.73L63.91 7.73L63.91 6.16L62.26 6.16L62.26 4.23L59.74 4.23L59.74 6.16L58.55 6.16L58.55 7.73L59.74 7.73L59.74 10.85C59.74 11.27 59.74 11.62 59.77 12.05C59.85 13.20 60.41 13.78 62.27 13.78C62.80 13.78 63.27 13.73 63.76 13.65L63.76 12.08C62.57 12.14 62.33 11.97 62.27 11.21C62.26 11.02 62.26 10.74 62.26 10.49ZM66.09 3.07C65.31 3.07 64.79 3.54 64.79 4.30C64.79 5.05 65.31 5.53 66.09 5.53C66.88 5.53 67.40 5.05 67.40 4.30C67.40 3.54 66.88 3.07 66.09 3.07ZM67.35 13.58L67.35 6.10L64.83 6.10L64.83 13.58ZM72.46 5.91C70.01 5.91 68.45 7.43 68.45 9.84C68.45 12.24 70.01 13.78 72.46 13.78C74.91 13.78 76.48 12.24 76.48 9.84C76.48 7.43 74.91 5.91 72.46 5.91ZM72.46 12.07C71.57 12.07 71.02 11.33 71.02 9.84C71.02 8.34 71.57 7.62 72.46 7.62C73.36 7.62 73.91 8.34 73.91 9.84C73.91 11.33 73.36 12.07 72.46 12.07ZM85.09 7.94C84.90 6.64 83.99 5.91 82.45 5.91C81.76 5.91 81.23 6.06 80.77 6.34L80.09 7.27L80.09 6.10L77.57 6.10L77.57 13.58L80.09 13.58L80.09 10.05C80.09 8.36 80.64 7.62 81.41 7.62C82.17 7.62 82.56 8.04 82.61 8.75C82.64 9.13 82.64 9.53 82.64 9.77L82.64 13.58L85.16 13.58L85.16 9.35C85.16 8.75 85.15 8.32 85.09 7.94Z"></path></g><!----><g data-v-423bf9ae="" id="03fe7d45-7034-41cc-8f63-a114b285484c" transform="matrix(2.8125,0,0,2.8125,143,0)" stroke="none" fill="black"><path d="M16 32c8.837 0 16-7.163 16-16S24.837 0 16 0 0 7.163 0 16s7.163 16 16 16zM14.817 6.421h2v8.886h8.887v2H14.817V6.421zm-5.959.437h2v14.283h14.283v2H8.858V6.858z"></path></g><!----><g data-v-423bf9ae="" id="023a058d-0ad3-4d3a-91f7-56b58677e1b2" fill="black" transform="matrix(0.7403425629351368,0,0,0.7403425629351368,47.54766771066866,202.35770252751888)"><path d="M0.52 3.64L0.52 3.64L0.53 3.08L3.67 3.08L3.67 3.64L3.39 3.64L3.39 3.64Q2.94 3.64 2.83 3.66L2.83 3.66L2.83 3.66Q2.66 3.71 2.66 3.82L2.66 3.82L2.66 3.82Q2.66 3.89 2.91 4.31L2.91 4.31L4.92 7.46L7.36 3.99L7.36 3.99Q7.44 3.83 7.45 3.82L7.45 3.82L7.45 3.82Q7.45 3.64 6.54 3.64L6.54 3.64L6.32 3.64L6.30 3.08L8.85 3.08L8.85 3.64L8.78 3.64L8.78 3.64Q8.43 3.64 8.29 3.72L8.29 3.72L8.29 3.72Q8.13 3.80 7.84 4.22L7.84 4.22L5.11 8.17L5.11 11.22L5.11 11.22Q5.11 11.66 5.22 11.77L5.22 11.77L5.22 11.77Q5.32 11.87 5.93 11.87L5.93 11.87L6.57 11.87L6.55 12.41L2.62 12.41L2.63 11.87L3.19 11.87L3.19 11.87Q3.73 11.87 3.85 11.79L3.85 11.79L3.85 11.79Q3.98 11.70 3.98 11.25L3.98 11.25L3.98 8.06L1.68 4.49L1.68 4.49Q1.26 3.84 1.13 3.73L1.13 3.73L1.13 3.73Q1.03 3.64 0.52 3.64ZM16.97 7.83L16.97 7.83L16.97 7.83Q16.97 6.62 17.37 5.68L17.37 5.68L17.37 5.68Q17.79 4.72 18.48 4.12L18.48 4.12L18.48 4.12Q19.17 3.51 20.03 3.19L20.03 3.19L20.03 3.19Q20.87 2.88 21.82 2.88L21.82 2.88L21.82 2.88Q23.08 2.88 24.13 3.40L24.13 3.40L24.13 3.40Q25.21 3.93 25.92 5.07L25.92 5.07L25.92 5.07Q26.62 6.17 26.63 7.75L26.63 7.75L26.63 7.75Q26.63 8.70 26.32 9.54L26.32 9.54L26.32 9.54Q26.01 10.38 25.41 11.10L25.41 11.10L25.41 11.10Q24.80 11.81 23.86 12.22L23.86 12.22L23.86 12.22Q22.90 12.63 21.71 12.64L21.71 12.64L21.71 12.64Q20.58 12.64 19.64 12.23L19.64 12.23L19.64 12.23Q18.70 11.83 18.14 11.14L18.14 11.14L18.14 11.14Q17.57 10.45 17.27 9.60L17.27 9.60L17.27 9.60Q16.97 8.72 16.97 7.83ZM18.22 7.38L18.22 7.38L18.22 7.38Q18.22 8.52 18.66 9.60L18.66 9.60L18.66 9.60Q19.06 10.64 19.99 11.33L19.99 11.33L19.99 11.33Q20.90 12.03 22.09 12.04L22.09 12.04L22.09 12.04Q23.46 12.04 24.40 11.01L24.40 11.01L24.40 11.01Q25.35 9.97 25.35 8.10L25.35 8.10L25.35 8.10Q25.35 5.99 24.19 4.72L24.19 4.72L24.19 4.72Q23.04 3.46 21.53 3.45L21.53 3.45L21.53 3.45Q21.01 3.45 20.46 3.65L20.46 3.65L20.46 3.65Q19.92 3.85 19.41 4.25L19.41 4.25L19.41 4.25Q18.87 4.68 18.55 5.48L18.55 5.48L18.55 5.48Q18.22 6.27 18.22 7.38ZM35.12 3.64L34.74 3.64L34.74 3.08L38.10 3.08L38.12 3.64L37.58 3.64L37.58 3.64Q37.15 3.64 37.00 3.73L37.00 3.73L37.00 3.73Q36.83 3.83 36.83 4.16L36.83 4.16L36.83 9.33L36.83 9.33Q36.83 9.63 36.86 9.78L36.86 9.78L36.86 9.78Q36.90 10.01 37.06 10.41L37.06 10.41L37.06 10.41Q37.24 10.80 37.53 11.09L37.53 11.09L37.53 11.09Q37.84 11.40 38.40 11.63L38.40 11.63L38.40 11.63Q38.97 11.85 39.75 11.85L39.75 11.85L39.75 11.85Q40.61 11.85 41.15 11.67L41.15 11.67L41.15 11.67Q41.71 11.48 42.02 11.22L42.02 11.22L42.02 11.22Q42.33 10.96 42.47 10.49L42.47 10.49L42.47 10.49Q42.64 9.95 42.65 9.66L42.65 9.66L42.65 9.66Q42.68 9.18 42.68 8.67L42.68 8.67L42.68 4.14L42.68 4.14Q42.68 3.81 42.54 3.72L42.54 3.72L42.54 3.72Q42.39 3.64 41.91 3.64L41.91 3.64L41.42 3.64L41.45 3.08L44.08 3.08L44.08 3.64L43.89 3.64L43.89 3.64Q43.57 3.64 43.45 3.75L43.45 3.75L43.45 3.75Q43.34 3.86 43.34 4.25L43.34 4.25L43.34 9.22L43.34 9.22Q43.34 12.67 39.75 12.67L39.75 12.67L39.75 12.67Q37.58 12.67 36.63 11.76L36.63 11.76L36.63 11.76Q35.70 10.86 35.70 9.41L35.70 9.41L35.70 4.14L35.70 4.14Q35.70 3.81 35.59 3.72L35.59 3.72L35.59 3.72Q35.49 3.64 35.12 3.64L35.12 3.64ZM52.15 3.64L51.76 3.64L51.78 3.08L55.00 3.08L55.00 3.08Q56.13 3.08 56.73 3.21L56.73 3.21L56.73 3.21Q57.37 3.37 57.84 3.75L57.84 3.75L57.84 3.75Q58.84 4.57 58.84 5.71L58.84 5.71L58.84 5.71Q58.84 6.43 58.37 7.04L58.37 7.04L58.37 7.04Q57.88 7.66 56.85 7.92L56.85 7.92L59.53 11.49L59.53 11.49Q59.84 11.87 60.14 11.87L60.14 11.87L60.74 11.87L60.76 12.41L58.73 12.41L55.74 8.10L55.57 8.10L55.57 8.10Q55.53 8.10 55.47 8.11L55.47 8.11L55.47 8.11Q55.42 8.11 55.41 8.11L55.41 8.11L55.41 8.11Q54.52 8.11 54.13 8.03L54.13 8.03L54.13 11.46L54.13 11.46Q54.13 11.76 54.27 11.81L54.27 11.81L54.27 11.81Q54.39 11.87 55.10 11.87L55.10 11.87L55.81 11.87L55.78 12.41L52.06 12.41L52.06 11.87L52.38 11.87L52.38 11.87Q52.84 11.87 52.91 11.81L52.91 11.81L52.91 11.81Q52.99 11.74 52.99 11.46L52.99 11.46L52.99 4.14L52.99 4.14Q52.99 3.82 52.80 3.73L52.80 3.73L52.80 3.73Q52.58 3.64 52.15 3.64L52.15 3.64ZM54.13 4.28L54.13 7.57L54.13 7.57Q54.31 7.70 55.02 7.71L55.02 7.71L55.02 7.71Q56.29 7.71 56.88 7.27L56.88 7.27L56.88 7.27Q57.46 6.84 57.46 5.92L57.46 5.92L57.46 5.92Q57.46 4.92 56.69 4.27L56.69 4.27L56.69 4.27Q55.93 3.64 54.55 3.64L54.55 3.64L54.55 3.64Q54.30 3.64 54.22 3.75L54.22 3.75L54.22 3.75Q54.13 3.84 54.13 4.28L54.13 4.28ZM78.58 3.64L78.09 3.64L78.09 3.08L81.60 3.08L81.59 3.64L80.85 3.64L80.85 3.64Q80.51 3.64 80.51 3.82L80.51 3.82L80.51 3.82Q80.51 3.98 80.71 4.48L80.71 4.48L83.31 10.94L86.25 4.18L86.25 4.18Q86.32 3.97 86.32 3.92L86.32 3.92L86.32 3.92Q86.32 3.79 86.23 3.74L86.23 3.74L86.23 3.74Q86.13 3.68 85.98 3.65L85.98 3.65L85.98 3.65Q85.90 3.64 85.63 3.64L85.63 3.64L85.19 3.64L85.16 3.08L88.00 3.08L87.97 3.64L87.57 3.64L87.57 3.64Q87.25 3.64 87.09 3.83L87.09 3.83L87.09 3.83Q87.01 3.93 86.54 4.94L86.54 4.94L86.54 4.94Q86.33 5.46 86.26 5.57L86.26 5.57L83.13 12.63L82.89 12.63L79.65 4.73L79.65 4.73Q79.32 3.93 79.18 3.79L79.18 3.79L79.18 3.79Q79.02 3.63 78.58 3.64L78.58 3.64ZM95.75 12.41L95.74 11.87L95.91 11.87L95.91 11.87Q96.30 11.87 96.43 11.73L96.43 11.73L96.43 11.73Q96.55 11.57 96.89 10.83L96.89 10.83L97.79 8.82L98.37 7.53L98.37 7.53Q98.64 6.97 98.68 6.86L98.68 6.86L98.68 6.86Q98.75 6.70 98.80 6.60L98.80 6.60L98.80 6.60Q98.85 6.51 98.86 6.45L98.86 6.45L98.96 6.21L100.39 2.74L100.68 2.74L100.68 2.74Q101.53 4.98 103.72 10.25L103.72 10.25L103.72 10.25Q104.17 11.34 104.36 11.64L104.36 11.64L104.36 11.64Q104.50 11.87 104.94 11.87L104.94 11.87L105.15 11.87L105.14 12.41L101.94 12.41L101.96 11.87L102.38 11.87L102.38 11.87Q102.99 11.87 102.99 11.70L102.99 11.70L102.99 11.70Q102.99 11.63 102.85 11.27L102.85 11.27L101.81 8.72L98.57 8.72L97.46 11.18L97.46 11.18Q97.32 11.50 97.32 11.63L97.32 11.63L97.32 11.63Q97.32 11.79 97.42 11.83L97.42 11.83L97.42 11.83Q97.51 11.87 97.90 11.87L97.90 11.87L98.47 11.87L98.47 12.41L95.75 12.41ZM100.25 4.79L98.83 8.10L101.58 8.10L100.25 4.79ZM113.26 8.02L113.26 8.02L113.26 8.02Q113.26 6.86 113.74 5.83L113.74 5.83L113.74 5.83Q114.20 4.85 114.95 4.27L114.95 4.27L114.95 4.27Q115.70 3.69 116.59 3.37L116.59 3.37L116.59 3.37Q117.49 3.05 118.33 3.05L118.33 3.05L118.33 3.05Q119.20 3.05 119.87 3.16L119.87 3.16L119.87 3.16Q120.50 3.26 120.79 3.37L120.79 3.37L120.79 3.37Q121.10 3.48 121.13 3.48L121.13 3.48L121.13 3.48Q121.30 3.48 121.32 3.41L121.32 3.41L121.32 3.41Q121.35 3.33 121.35 3.09L121.35 3.09L121.35 2.97L121.88 2.97L121.88 2.97Q121.93 4.30 122.06 5.64L122.06 5.64L121.55 5.65L121.55 5.65Q121.52 5.40 121.51 5.26L121.51 5.26L121.51 5.26Q121.51 5.20 121.50 5.13L121.50 5.13L121.50 5.13Q121.50 5.07 121.49 5.02L121.49 5.02L121.49 5.02Q121.48 4.98 121.48 4.95L121.48 4.95L121.48 4.95Q121.45 4.84 121.45 4.74L121.45 4.74L121.45 4.74Q121.45 4.68 121.41 4.59L121.41 4.59L121.41 4.59Q121.41 4.57 121.38 4.55L121.38 4.55L121.38 4.55Q121.35 4.52 121.35 4.50L121.35 4.50L121.35 4.50Q121.32 4.44 121.26 4.41L121.26 4.41L121.26 4.41Q121.21 4.38 121.19 4.37L121.19 4.37L121.19 4.37Q121.16 4.36 121.13 4.35L121.13 4.35L121.13 4.35Q121.12 4.35 121.10 4.33L121.10 4.33L121.10 4.33Q121.07 4.31 121.03 4.29L121.03 4.29L121.03 4.29Q120.99 4.27 120.95 4.25L120.95 4.25L120.95 4.25Q120.72 4.16 120.70 4.14L120.70 4.14L120.70 4.14Q120.35 3.96 119.70 3.83L119.70 3.83L119.70 3.83Q119.03 3.71 118.37 3.71L118.37 3.71L118.37 3.71Q116.65 3.71 115.55 4.84L115.55 4.84L115.55 4.84Q114.45 5.99 114.45 7.62L114.45 7.62L114.45 7.62Q114.45 9.35 115.67 10.69L115.67 10.69L115.67 10.69Q116.87 12.02 118.69 12.02L118.69 12.02L118.69 12.02Q119.70 12.02 120.64 11.49L120.64 11.49L120.64 11.49Q121.59 10.94 121.62 10.58L121.62 10.58L121.66 9.41L122.15 9.41L122.07 11.45L122.07 11.45Q122.00 11.49 121.87 11.57L121.87 11.57L121.87 11.57Q121.82 11.60 121.35 11.85L121.35 11.85L121.35 11.85Q120.98 12.05 120.53 12.23L120.53 12.23L120.53 12.23Q120.17 12.39 119.52 12.51L119.52 12.51L119.52 12.51Q118.91 12.63 118.34 12.64L118.34 12.64L118.34 12.64Q115.96 12.64 114.60 11.39L114.60 11.39L114.60 11.39Q113.26 10.14 113.26 8.02ZM130.20 12.41L130.18 11.87L130.35 11.87L130.35 11.87Q130.74 11.87 130.87 11.73L130.87 11.73L130.87 11.73Q131.00 11.57 131.33 10.83L131.33 10.83L132.24 8.82L132.82 7.53L132.82 7.53Q133.08 6.97 133.12 6.86L133.12 6.86L133.12 6.86Q133.19 6.70 133.24 6.60L133.24 6.60L133.24 6.60Q133.29 6.51 133.31 6.45L133.31 6.45L133.40 6.21L134.83 2.74L135.13 2.74L135.13 2.74Q135.98 4.98 138.17 10.25L138.17 10.25L138.17 10.25Q138.62 11.34 138.81 11.64L138.81 11.64L138.81 11.64Q138.95 11.87 139.38 11.87L139.38 11.87L139.60 11.87L139.58 12.41L136.39 12.41L136.40 11.87L136.82 11.87L136.82 11.87Q137.44 11.87 137.44 11.70L137.44 11.70L137.44 11.70Q137.44 11.63 137.30 11.27L137.30 11.27L136.26 8.72L133.01 8.72L131.91 11.18L131.91 11.18Q131.77 11.50 131.77 11.63L131.77 11.63L131.77 11.63Q131.77 11.79 131.87 11.83L131.87 11.83L131.87 11.83Q131.96 11.87 132.34 11.87L132.34 11.87L132.92 11.87L132.92 12.41L130.20 12.41ZM134.70 4.79L133.28 8.10L136.02 8.10L134.70 4.79ZM147.61 5.35L147.11 5.33L147.11 5.33Q147.23 4.17 147.31 3.08L147.31 3.08L155.39 3.08L155.39 3.08Q155.31 4.13 155.29 4.53L155.29 4.53L155.29 4.53Q155.24 5.26 155.22 5.32L155.22 5.32L154.72 5.30L154.72 5.30Q154.81 4.34 154.81 4.16L154.81 4.16L154.81 4.16Q154.81 3.88 154.66 3.79L154.66 3.79L154.66 3.79Q154.49 3.69 154.09 3.69L154.09 3.69L152.48 3.69L152.48 3.69Q151.98 3.69 151.85 3.79L151.85 3.79L151.85 3.79Q151.76 3.87 151.75 4.36L151.75 4.36L151.75 11.22L151.75 11.22Q151.75 11.66 151.89 11.76L151.89 11.76L151.89 11.76Q152.05 11.87 152.56 11.87L152.56 11.87L153.13 11.87L153.14 12.41L149.45 12.40L149.45 11.87L149.67 11.87L149.67 11.87Q150.34 11.87 150.48 11.79L150.48 11.79L150.48 11.79Q150.62 11.70 150.62 11.28L150.62 11.28L150.62 4.48L150.62 4.48Q150.62 3.92 150.52 3.80L150.52 3.80L150.52 3.80Q150.42 3.69 150.00 3.69L150.00 3.69L148.53 3.69L148.53 3.69Q148.35 3.69 148.28 3.71L148.28 3.71L148.28 3.71Q148.21 3.72 148.10 3.72L148.10 3.72L148.10 3.72Q148.07 3.72 147.96 3.79L147.96 3.79L147.96 3.79Q147.88 3.84 147.85 3.86L147.85 3.86L147.85 3.86Q147.82 3.88 147.78 3.99L147.78 3.99L147.78 3.99Q147.75 4.05 147.72 4.14L147.72 4.14L147.72 4.14Q147.70 4.21 147.68 4.36L147.68 4.36L147.68 4.36Q147.65 4.59 147.65 4.61L147.65 4.61L147.65 4.61Q147.65 4.80 147.64 4.95L147.64 4.95L147.64 4.95Q147.64 5.02 147.63 5.15L147.63 5.15L147.63 5.15Q147.62 5.29 147.61 5.35L147.61 5.35ZM163.72 3.64L163.13 3.64L163.15 3.08L166.66 3.08L166.66 3.64L166.43 3.64L166.43 3.64Q165.88 3.64 165.71 3.73L165.71 3.73L165.71 3.73Q165.57 3.81 165.57 4.28L165.57 4.28L165.57 11.22L165.57 11.22Q165.57 11.68 165.68 11.77L165.68 11.77L165.68 11.77Q165.79 11.87 166.33 11.87L166.33 11.87L166.87 11.87L166.89 12.41L163.30 12.41L163.29 11.87L163.65 11.87L163.65 11.87Q164.21 11.87 164.33 11.77L164.33 11.77L164.33 11.77Q164.44 11.67 164.44 11.25L164.44 11.25L164.44 4.14L164.44 4.14Q164.44 3.77 164.34 3.71L164.34 3.71L164.34 3.71Q164.23 3.64 163.72 3.64L163.72 3.64ZM175.01 7.83L175.01 7.83L175.01 7.83Q175.01 6.62 175.41 5.68L175.41 5.68L175.41 5.68Q175.83 4.72 176.52 4.12L176.52 4.12L176.52 4.12Q177.21 3.51 178.07 3.19L178.07 3.19L178.07 3.19Q178.91 2.88 179.86 2.88L179.86 2.88L179.86 2.88Q181.12 2.88 182.17 3.40L182.17 3.40L182.17 3.40Q183.25 3.93 183.96 5.07L183.96 5.07L183.96 5.07Q184.66 6.17 184.67 7.75L184.67 7.75L184.67 7.75Q184.67 8.70 184.36 9.54L184.36 9.54L184.36 9.54Q184.05 10.38 183.45 11.10L183.45 11.10L183.45 11.10Q182.84 11.81 181.90 12.22L181.90 12.22L181.90 12.22Q180.94 12.63 179.75 12.64L179.75 12.64L179.75 12.64Q178.62 12.64 177.68 12.23L177.68 12.23L177.68 12.23Q176.74 11.83 176.18 11.14L176.18 11.14L176.18 11.14Q175.61 10.45 175.31 9.60L175.31 9.60L175.31 9.60Q175.01 8.72 175.01 7.83ZM176.26 7.38L176.26 7.38L176.26 7.38Q176.26 8.52 176.70 9.60L176.70 9.60L176.70 9.60Q177.10 10.64 178.03 11.33L178.03 11.33L178.03 11.33Q178.94 12.03 180.13 12.04L180.13 12.04L180.13 12.04Q181.50 12.04 182.44 11.01L182.44 11.01L182.44 11.01Q183.39 9.97 183.39 8.10L183.39 8.10L183.39 8.10Q183.39 5.99 182.23 4.72L182.23 4.72L182.23 4.72Q181.08 3.46 179.57 3.45L179.57 3.45L179.57 3.45Q179.05 3.45 178.50 3.65L178.50 3.65L178.50 3.65Q177.96 3.85 177.45 4.25L177.45 4.25L177.45 4.25Q176.91 4.68 176.59 5.48L176.59 5.48L176.59 5.48Q176.26 6.27 176.26 7.38ZM192.79 3.64L192.78 3.08L194.95 3.08L200.69 10.48L200.69 4.14L200.69 4.14Q200.69 3.81 200.54 3.72L200.54 3.72L200.54 3.72Q200.38 3.64 199.92 3.64L199.92 3.64L199.43 3.64L199.46 3.08L202.44 3.08L202.44 3.64L202.12 3.64L202.12 3.64Q201.65 3.64 201.50 3.75L201.50 3.75L201.50 3.75Q201.35 3.86 201.35 4.25L201.35 4.25L201.35 12.32L201.35 12.47L201.35 12.47Q201.35 12.52 201.34 12.57L201.34 12.57L201.34 12.57Q201.33 12.61 201.29 12.64L201.29 12.64L201.29 12.64Q201.28 12.65 201.22 12.65L201.22 12.65L201.03 12.65L200.97 12.65L200.94 12.65L200.92 12.64L200.92 12.64Q200.89 12.64 200.87 12.63L200.87 12.63L200.87 12.63Q200.86 12.61 200.86 12.60L200.86 12.60L200.86 12.60Q200.86 12.58 200.85 12.57L200.85 12.57L200.85 12.57Q200.82 12.54 200.79 12.50L200.79 12.50L200.79 12.50Q200.78 12.48 200.76 12.45L200.76 12.45L200.76 12.45Q200.74 12.41 200.72 12.40L200.72 12.40L194.62 4.56L194.69 11.22L194.69 11.22Q194.69 11.67 194.85 11.77L194.85 11.77L194.85 11.77Q195.01 11.87 195.72 11.87L195.72 11.87L195.96 11.87L195.96 12.41L193.02 12.41L193.02 11.87L193.44 11.87L193.44 11.87Q193.82 11.87 193.93 11.76L193.93 11.76L193.93 11.76Q194.02 11.66 194.03 11.25L194.03 11.25L194.03 3.80L193.89 3.64L192.79 3.64ZM219.72 10.04L219.72 10.04L220.21 9.98L220.40 10.85L220.40 10.85Q220.51 11.33 220.58 11.41L220.58 11.41L220.58 11.41Q220.64 11.49 221.05 11.64L221.05 11.64L221.05 11.64Q221.89 11.95 222.79 11.95L222.79 11.95L222.79 11.95Q223.58 11.95 224.12 11.49L224.12 11.49L224.12 11.49Q224.65 11.04 224.65 10.26L224.65 10.26L224.65 10.26Q224.65 9.65 224.19 9.21L224.19 9.21L224.19 9.21Q223.71 8.76 222.86 8.30L222.86 8.30L222.28 7.98L222.28 7.98Q221.54 7.55 221.31 7.36L221.31 7.36L221.31 7.36Q220.94 7.08 220.63 6.59L220.63 6.59L220.63 6.59Q220.32 6.10 220.32 5.46L220.32 5.46L220.32 5.46Q220.32 4.39 221.16 3.68L221.16 3.68L221.16 3.68Q222.00 2.97 223.11 2.97L223.11 2.97L223.11 2.97Q223.39 2.97 223.74 3.04L223.74 3.04L223.74 3.04Q223.94 3.08 224.27 3.17L224.27 3.17L224.51 3.25L224.51 3.25Q224.61 3.25 224.65 3.16L224.65 3.16L224.65 3.16Q224.70 3.05 224.70 2.98L224.70 2.98L224.72 2.88L225.20 2.85L225.41 5.41L224.90 5.43L224.78 4.18L224.78 4.18Q224.03 3.62 222.87 3.62L222.87 3.62L222.87 3.62Q222.23 3.62 221.72 4.05L221.72 4.05L221.72 4.05Q221.25 4.47 221.25 5.12L221.25 5.12L221.25 5.12Q221.25 5.72 221.70 6.17L221.70 6.17L221.70 6.17Q222.13 6.60 223.00 7.08L223.00 7.08L223.77 7.50L223.77 7.50Q224.72 8.03 225.25 8.59L225.25 8.59L225.25 8.59Q225.78 9.15 225.78 9.92L225.78 9.92L225.78 9.92Q225.78 10.99 224.93 11.76L224.93 11.76L224.93 11.76Q224.06 12.54 222.61 12.54L222.61 12.54L222.61 12.54Q222.04 12.54 221.54 12.41L221.54 12.41L221.54 12.41Q221.04 12.29 220.99 12.29L220.99 12.29L220.99 12.29Q220.73 12.29 220.73 12.58L220.73 12.58L220.75 12.76L220.27 12.80L220.27 12.80Q220.21 12.41 219.72 10.04ZM234.25 5.35L233.75 5.33L233.75 5.33Q233.87 4.17 233.95 3.08L233.95 3.08L242.03 3.08L242.03 3.08Q241.95 4.13 241.92 4.53L241.92 4.53L241.92 4.53Q241.88 5.26 241.86 5.32L241.86 5.32L241.36 5.30L241.36 5.30Q241.45 4.34 241.45 4.16L241.45 4.16L241.45 4.16Q241.45 3.88 241.30 3.79L241.30 3.79L241.30 3.79Q241.13 3.69 240.73 3.69L240.73 3.69L239.12 3.69L239.12 3.69Q238.62 3.69 238.49 3.79L238.49 3.79L238.49 3.79Q238.40 3.87 238.39 4.36L238.39 4.36L238.39 11.22L238.39 11.22Q238.39 11.66 238.53 11.76L238.53 11.76L238.53 11.76Q238.69 11.87 239.20 11.87L239.20 11.87L239.76 11.87L239.78 12.41L236.09 12.40L236.09 11.87L236.30 11.87L236.30 11.87Q236.97 11.87 237.12 11.79L237.12 11.79L237.12 11.79Q237.26 11.70 237.26 11.28L237.26 11.28L237.26 4.48L237.26 4.48Q237.26 3.92 237.16 3.80L237.16 3.80L237.16 3.80Q237.06 3.69 236.64 3.69L236.64 3.69L235.17 3.69L235.17 3.69Q234.99 3.69 234.92 3.71L234.92 3.71L234.92 3.71Q234.85 3.72 234.74 3.72L234.74 3.72L234.74 3.72Q234.71 3.72 234.60 3.79L234.60 3.79L234.60 3.79Q234.51 3.84 234.49 3.86L234.49 3.86L234.49 3.86Q234.46 3.88 234.42 3.99L234.42 3.99L234.42 3.99Q234.39 4.05 234.36 4.14L234.36 4.14L234.36 4.14Q234.34 4.21 234.32 4.36L234.32 4.36L234.32 4.36Q234.29 4.59 234.29 4.61L234.29 4.61L234.29 4.61Q234.29 4.80 234.27 4.95L234.27 4.95L234.27 4.95Q234.27 5.02 234.27 5.15L234.27 5.15L234.27 5.15Q234.26 5.29 234.25 5.35L234.25 5.35ZM249.79 12.41L249.77 11.87L249.94 11.87L249.94 11.87Q250.33 11.87 250.46 11.73L250.46 11.73L250.46 11.73Q250.58 11.57 250.92 10.83L250.92 10.83L251.83 8.82L252.40 7.53L252.40 7.53Q252.67 6.97 252.71 6.86L252.71 6.86L252.71 6.86Q252.78 6.70 252.83 6.60L252.83 6.60L252.83 6.60Q252.88 6.51 252.90 6.45L252.90 6.45L252.99 6.21L254.42 2.74L254.71 2.74L254.71 2.74Q255.57 4.98 257.76 10.25L257.76 10.25L257.76 10.25Q258.21 11.34 258.40 11.64L258.40 11.64L258.40 11.64Q258.54 11.87 258.97 11.87L258.97 11.87L259.18 11.87L259.17 12.41L255.98 12.41L255.99 11.87L256.41 11.87L256.41 11.87Q257.02 11.87 257.02 11.70L257.02 11.70L257.02 11.70Q257.02 11.63 256.89 11.27L256.89 11.27L255.85 8.72L252.60 8.72L251.49 11.18L251.49 11.18Q251.36 11.50 251.36 11.63L251.36 11.63L251.36 11.63Q251.36 11.79 251.45 11.83L251.45 11.83L251.45 11.83Q251.55 11.87 251.93 11.87L251.93 11.87L252.51 11.87L252.51 12.41L249.79 12.41ZM254.28 4.79L252.87 8.10L255.61 8.10L254.28 4.79ZM267.25 3.64L266.86 3.64L266.88 3.08L270.09 3.08L270.09 3.08Q271.23 3.08 271.83 3.21L271.83 3.21L271.83 3.21Q272.47 3.37 272.94 3.75L272.94 3.75L272.94 3.75Q273.94 4.57 273.94 5.71L273.94 5.71L273.94 5.71Q273.94 6.43 273.47 7.04L273.47 7.04L273.47 7.04Q272.98 7.66 271.95 7.92L271.95 7.92L274.63 11.49L274.63 11.49Q274.94 11.87 275.24 11.87L275.24 11.87L275.84 11.87L275.86 12.41L273.83 12.41L270.84 8.10L270.67 8.10L270.67 8.10Q270.63 8.10 270.57 8.11L270.57 8.11L270.57 8.11Q270.52 8.11 270.50 8.11L270.50 8.11L270.50 8.11Q269.62 8.11 269.23 8.03L269.23 8.03L269.23 11.46L269.23 11.46Q269.23 11.76 269.37 11.81L269.37 11.81L269.37 11.81Q269.49 11.87 270.20 11.87L270.20 11.87L270.91 11.87L270.88 12.41L267.16 12.41L267.16 11.87L267.48 11.87L267.48 11.87Q267.94 11.87 268.01 11.81L268.01 11.81L268.01 11.81Q268.09 11.74 268.09 11.46L268.09 11.46L268.09 4.14L268.09 4.14Q268.09 3.82 267.90 3.73L267.90 3.73L267.90 3.73Q267.67 3.64 267.25 3.64L267.25 3.64ZM269.23 4.28L269.23 7.57L269.23 7.57Q269.41 7.70 270.12 7.71L270.12 7.71L270.12 7.71Q271.39 7.71 271.97 7.27L271.97 7.27L271.97 7.27Q272.56 6.84 272.56 5.92L272.56 5.92L272.56 5.92Q272.56 4.92 271.79 4.27L271.79 4.27L271.79 4.27Q271.03 3.64 269.65 3.64L269.65 3.64L269.65 3.64Q269.40 3.64 269.32 3.75L269.32 3.75L269.32 3.75Q269.23 3.84 269.23 4.28L269.23 4.28ZM283.90 5.35L283.40 5.33L283.40 5.33Q283.52 4.17 283.60 3.08L283.60 3.08L291.68 3.08L291.68 3.08Q291.60 4.13 291.57 4.53L291.57 4.53L291.57 4.53Q291.53 5.26 291.51 5.32L291.51 5.32L291.01 5.30L291.01 5.30Q291.09 4.34 291.09 4.16L291.09 4.16L291.09 4.16Q291.09 3.88 290.95 3.79L290.95 3.79L290.95 3.79Q290.78 3.69 290.38 3.69L290.38 3.69L288.77 3.69L288.77 3.69Q288.26 3.69 288.14 3.79L288.14 3.79L288.14 3.79Q288.05 3.87 288.04 4.36L288.04 4.36L288.04 11.22L288.04 11.22Q288.04 11.66 288.18 11.76L288.18 11.76L288.18 11.76Q288.34 11.87 288.85 11.87L288.85 11.87L289.41 11.87L289.43 12.41L285.74 12.40L285.74 11.87L285.95 11.87L285.95 11.87Q286.62 11.87 286.77 11.79L286.77 11.79L286.77 11.79Q286.91 11.70 286.91 11.28L286.91 11.28L286.91 4.48L286.91 4.48Q286.91 3.92 286.81 3.80L286.81 3.80L286.81 3.80Q286.71 3.69 286.29 3.69L286.29 3.69L284.82 3.69L284.82 3.69Q284.63 3.69 284.57 3.71L284.57 3.71L284.57 3.71Q284.50 3.72 284.39 3.72L284.39 3.72L284.39 3.72Q284.36 3.72 284.25 3.79L284.25 3.79L284.25 3.79Q284.16 3.84 284.14 3.86L284.14 3.86L284.14 3.86Q284.11 3.88 284.07 3.99L284.07 3.99L284.07 3.99Q284.04 4.05 284.01 4.14L284.01 4.14L284.01 4.14Q283.99 4.21 283.96 4.36L283.96 4.36L283.96 4.36Q283.94 4.59 283.94 4.61L283.94 4.61L283.94 4.61Q283.94 4.80 283.92 4.95L283.92 4.95L283.92 4.95Q283.92 5.02 283.92 5.15L283.92 5.15L283.92 5.15Q283.91 5.29 283.90 5.35L283.90 5.35ZM299.39 10.04L299.39 10.04L299.89 9.98L300.07 10.85L300.07 10.85Q300.18 11.33 300.25 11.41L300.25 11.41L300.25 11.41Q300.32 11.49 300.73 11.64L300.73 11.64L300.73 11.64Q301.57 11.95 302.46 11.95L302.46 11.95L302.46 11.95Q303.25 11.95 303.79 11.49L303.79 11.49L303.79 11.49Q304.32 11.04 304.32 10.26L304.32 10.26L304.32 10.26Q304.32 9.65 303.86 9.21L303.86 9.21L303.86 9.21Q303.39 8.76 302.53 8.30L302.53 8.30L301.96 7.98L301.96 7.98Q301.21 7.55 300.98 7.36L300.98 7.36L300.98 7.36Q300.62 7.08 300.31 6.59L300.31 6.59L300.31 6.59Q300.00 6.10 300.00 5.46L300.00 5.46L300.00 5.46Q300.00 4.39 300.84 3.68L300.84 3.68L300.84 3.68Q301.68 2.97 302.78 2.97L302.78 2.97L302.78 2.97Q303.06 2.97 303.41 3.04L303.41 3.04L303.41 3.04Q303.61 3.08 303.95 3.17L303.95 3.17L304.19 3.25L304.19 3.25Q304.28 3.25 304.32 3.16L304.32 3.16L304.32 3.16Q304.38 3.05 304.38 2.98L304.38 2.98L304.39 2.88L304.87 2.85L305.08 5.41L304.58 5.43L304.45 4.18L304.45 4.18Q303.71 3.62 302.54 3.62L302.54 3.62L302.54 3.62Q301.90 3.62 301.40 4.05L301.40 4.05L301.40 4.05Q300.92 4.47 300.92 5.12L300.92 5.12L300.92 5.12Q300.92 5.72 301.37 6.17L301.37 6.17L301.37 6.17Q301.80 6.60 302.67 7.08L302.67 7.08L303.44 7.50L303.44 7.50Q304.39 8.03 304.92 8.59L304.92 8.59L304.92 8.59Q305.46 9.15 305.46 9.92L305.46 9.92L305.46 9.92Q305.46 10.99 304.60 11.76L304.60 11.76L304.60 11.76Q303.73 12.54 302.28 12.54L302.28 12.54L302.28 12.54Q301.72 12.54 301.22 12.41L301.22 12.41L301.22 12.41Q300.71 12.29 300.66 12.29L300.66 12.29L300.66 12.29Q300.41 12.29 300.41 12.58L300.41 12.58L300.42 12.76L299.94 12.80L299.94 12.80Q299.88 12.41 299.39 10.04ZM323.58 3.64L323.21 3.64L323.21 3.08L326.70 3.08L326.70 3.64L326.33 3.64L326.33 3.64Q325.83 3.64 325.68 3.75L325.68 3.75L325.68 3.75Q325.54 3.84 325.53 4.25L325.53 4.25L325.53 6.91L330.09 6.91L330.09 4.14L330.09 4.14Q330.09 3.77 329.99 3.71L329.99 3.71L329.99 3.71Q329.88 3.64 329.36 3.64L329.36 3.64L328.77 3.64L328.75 3.08L332.31 3.08L332.31 3.64L331.92 3.64L331.92 3.64Q331.44 3.64 331.33 3.74L331.33 3.74L331.33 3.74Q331.22 3.83 331.22 4.22L331.22 4.22L331.22 11.29L331.22 11.29Q331.22 11.67 331.36 11.77L331.36 11.77L331.36 11.77Q331.52 11.87 332.06 11.87L332.06 11.87L332.53 11.87L332.52 12.41L329.03 12.41L329.02 11.87L329.43 11.87L329.43 11.87Q329.90 11.87 329.99 11.77L329.99 11.77L329.99 11.77Q330.09 11.67 330.09 11.25L330.09 11.25L330.09 7.58L325.53 7.58L325.53 11.25L325.53 11.25Q325.53 11.67 325.69 11.77L325.69 11.77L325.69 11.77Q325.84 11.87 326.55 11.87L326.55 11.87L326.95 11.87L326.92 12.41L323.34 12.41L323.33 11.87L323.69 11.87L323.69 11.87Q324.24 11.87 324.30 11.80L324.30 11.80L324.30 11.80Q324.40 11.70 324.40 11.25L324.40 11.25L324.40 4.09L324.40 4.09Q324.40 3.76 324.26 3.71L324.26 3.71L324.26 3.71Q324.09 3.64 323.58 3.64L323.58 3.64ZM340.29 3.64L340.27 3.08L347.48 3.08L347.48 3.08Q347.50 4.14 347.55 5.28L347.55 5.28L347.01 5.30L347.01 5.30Q346.99 4.66 346.94 4.25L346.94 4.25L346.94 4.25Q346.90 3.89 346.84 3.80L346.84 3.80L346.84 3.80Q346.79 3.71 346.67 3.69L346.67 3.69L346.67 3.69Q346.58 3.68 345.99 3.68L345.99 3.68L343.61 3.68L343.61 3.68Q343.06 3.68 342.92 3.77L342.92 3.77L342.92 3.77Q342.79 3.86 342.79 4.33L342.79 4.33L342.79 6.28L342.79 6.28Q342.79 6.69 342.85 6.76L342.85 6.76L342.85 6.76Q342.92 6.84 343.26 6.84L343.26 6.84L345.37 6.84L345.37 6.84Q345.73 6.84 345.82 6.73L345.82 6.73L345.82 6.73Q345.90 6.63 345.91 6.14L345.91 6.14L345.91 5.61L346.42 5.63L346.42 8.97L345.91 8.97L345.91 8.24L345.91 8.24Q345.91 7.66 345.83 7.57L345.83 7.57L345.83 7.57Q345.75 7.46 345.40 7.46L345.40 7.46L343.30 7.46L343.30 7.46Q342.97 7.46 342.88 7.54L342.88 7.54L342.88 7.54Q342.79 7.63 342.79 7.89L342.79 7.89L342.79 11.20L342.79 11.20Q342.79 11.57 342.88 11.67L342.88 11.67L342.88 11.67Q342.97 11.77 343.24 11.77L343.24 11.77L343.24 11.77Q346.16 11.75 346.68 11.69L346.68 11.69L346.68 11.69Q347.20 11.63 347.29 11.38L347.29 11.38L347.29 11.36L347.30 11.35L347.53 10.17L348.00 10.25L347.66 12.41L340.55 12.41L340.55 11.87L340.92 11.87L340.92 11.87Q341.48 11.87 341.56 11.80L341.56 11.80L341.56 11.80Q341.66 11.72 341.66 11.33L341.66 11.33L341.66 4.24L341.66 4.24Q341.66 3.82 341.51 3.73L341.51 3.73L341.51 3.73Q341.34 3.64 340.68 3.64L340.68 3.64L340.29 3.64ZM356.21 3.64L355.82 3.64L355.84 3.08L359.06 3.08L359.06 3.08Q360.19 3.08 360.79 3.21L360.79 3.21L360.79 3.21Q361.44 3.37 361.90 3.75L361.90 3.75L361.90 3.75Q362.91 4.57 362.91 5.71L362.91 5.71L362.91 5.71Q362.91 6.43 362.43 7.04L362.43 7.04L362.43 7.04Q361.94 7.66 360.91 7.92L360.91 7.92L363.60 11.49L363.60 11.49Q363.90 11.87 364.20 11.87L364.20 11.87L364.80 11.87L364.83 12.41L362.80 12.41L359.80 8.10L359.63 8.10L359.63 8.10Q359.59 8.10 359.54 8.11L359.54 8.11L359.54 8.11Q359.48 8.11 359.47 8.11L359.47 8.11L359.47 8.11Q358.59 8.11 358.19 8.03L358.19 8.03L358.19 11.46L358.19 11.46Q358.19 11.76 358.33 11.81L358.33 11.81L358.33 11.81Q358.46 11.87 359.16 11.87L359.16 11.87L359.87 11.87L359.84 12.41L356.12 12.41L356.12 11.87L356.44 11.87L356.44 11.87Q356.90 11.87 356.97 11.81L356.97 11.81L356.97 11.81Q357.05 11.74 357.05 11.46L357.05 11.46L357.05 4.14L357.05 4.14Q357.05 3.82 356.86 3.73L356.86 3.73L356.86 3.73Q356.64 3.64 356.21 3.64L356.21 3.64ZM358.19 4.28L358.19 7.57L358.19 7.57Q358.37 7.70 359.08 7.71L359.08 7.71L359.08 7.71Q360.36 7.71 360.94 7.27L360.94 7.27L360.94 7.27Q361.53 6.84 361.53 5.92L361.53 5.92L361.53 5.92Q361.53 4.92 360.75 4.27L360.75 4.27L360.75 4.27Q359.99 3.64 358.61 3.64L358.61 3.64L358.61 3.64Q358.36 3.64 358.28 3.75L358.28 3.75L358.28 3.75Q358.20 3.84 358.19 4.28L358.19 4.28ZM372.59 3.64L372.58 3.08L379.79 3.08L379.79 3.08Q379.80 4.14 379.86 5.28L379.86 5.28L379.31 5.30L379.31 5.30Q379.30 4.66 379.24 4.25L379.24 4.25L379.24 4.25Q379.20 3.89 379.15 3.80L379.15 3.80L379.15 3.80Q379.09 3.71 378.98 3.69L378.98 3.69L378.98 3.69Q378.88 3.68 378.29 3.68L378.29 3.68L375.92 3.68L375.92 3.68Q375.37 3.68 375.22 3.77L375.22 3.77L375.22 3.77Q375.10 3.86 375.10 4.33L375.10 4.33L375.10 6.28L375.10 6.28Q375.10 6.69 375.16 6.76L375.16 6.76L375.16 6.76Q375.22 6.84 375.57 6.84L375.57 6.84L377.68 6.84L377.68 6.84Q378.04 6.84 378.12 6.73L378.12 6.73L378.12 6.73Q378.21 6.63 378.21 6.14L378.21 6.14L378.21 5.61L378.72 5.63L378.72 8.97L378.21 8.97L378.21 8.24L378.21 8.24Q378.21 7.66 378.14 7.57L378.14 7.57L378.14 7.57Q378.05 7.46 377.71 7.46L377.71 7.46L375.61 7.46L375.61 7.46Q375.27 7.46 375.19 7.54L375.19 7.54L375.19 7.54Q375.10 7.63 375.10 7.89L375.10 7.89L375.10 11.20L375.10 11.20Q375.10 11.57 375.19 11.67L375.19 11.67L375.19 11.67Q375.27 11.77 375.55 11.77L375.55 11.77L375.55 11.77Q378.46 11.75 378.99 11.69L378.99 11.69L378.99 11.69Q379.51 11.63 379.59 11.38L379.59 11.38L379.60 11.36L379.61 11.35L379.83 10.17L380.31 10.25L379.96 12.41L372.86 12.41L372.86 11.87L373.23 11.87L373.23 11.87Q373.79 11.87 373.87 11.80L373.87 11.80L373.87 11.80Q373.97 11.72 373.97 11.33L373.97 11.33L373.97 4.24L373.97 4.24Q373.97 3.82 373.82 3.73L373.82 3.73L373.82 3.73Q373.65 3.64 372.99 3.64L372.99 3.64L372.59 3.64Z"></path></g></svg>