<svg data-v-423bf9ae="" xmlns="http://www.w3.org/2000/svg" viewBox="0 0 374.8996110710733 60" class="font"><!----><!----><!----><g data-v-423bf9ae="" id="74583619-db41-42f5-9246-e0f05b9a899e" fill="white" transform="matrix(4.460966289706529,0,0,4.460966289706529,-4.996288144411523,-13.695165973178831)"><path d="M12.17 3.92L8.33 3.92L6.69 11.13L5.05 3.92L1.12 3.92L1.12 13.58L3.64 13.58L3.64 9.52C3.64 8.68 3.64 7.43 3.61 6.45C3.77 7.43 4.05 8.68 4.27 9.52L5.35 13.58L7.94 13.58L9.00 9.52C9.23 8.67 9.51 7.43 9.67 6.45C9.65 7.43 9.65 8.68 9.65 9.52L9.65 13.58L12.17 13.58ZM21.55 6.10L18.79 6.10L17.26 11.58L15.72 6.10L12.92 6.10L16.02 13.92L15.92 14.13C15.68 14.66 15.27 14.85 14.69 14.85C14.43 14.85 14.21 14.85 14 14.83L14 16.45C14.36 16.51 14.66 16.52 15.06 16.52C16.84 16.52 17.65 15.95 18.59 13.58ZM30.91 13.58L34.40 3.92L31.72 3.92L29.40 11.63L27.09 3.92L24.35 3.92L27.83 13.58ZM38.96 13.58L41.43 13.58C41.31 12.75 41.29 12.25 41.29 11.69L41.29 9.59C41.29 9.13 41.27 8.69 41.24 8.32C41.13 6.96 40.32 5.91 37.95 5.91C36.06 5.91 34.51 6.90 34.50 8.65L36.88 8.64C36.92 7.99 37.25 7.62 37.84 7.62C38.39 7.62 38.70 7.95 38.74 8.33C38.77 8.57 38.77 8.72 38.77 8.88L38.77 8.99L38.29 8.99C35.76 8.99 34.24 9.97 34.24 11.56C34.24 13.01 35.41 13.78 36.64 13.78C37.32 13.78 37.95 13.61 38.49 13.27L38.79 12.49ZM37.67 12.07C37.17 12.07 36.82 11.82 36.82 11.37C36.82 10.63 37.63 10.33 38.77 10.42L38.77 10.91C38.77 11.69 38.18 12.07 37.67 12.07ZM46.31 5.91C44.11 5.91 42.38 7.35 42.38 9.93C42.38 12.39 44.00 13.78 46.14 13.78C48.17 13.78 49.67 12.77 49.95 10.84L47.47 10.84C47.33 11.65 46.86 12.07 46.28 12.07C45.43 12.07 44.95 11.37 44.95 9.77C44.95 8.33 45.42 7.62 46.26 7.62C46.89 7.62 47.38 7.98 47.49 8.96L49.92 8.96C49.85 7.28 48.51 5.91 46.31 5.91ZM55.40 13.58L57.86 13.58C57.75 12.75 57.72 12.25 57.72 11.69L57.72 9.59C57.72 9.13 57.71 8.69 57.68 8.32C57.57 6.96 56.76 5.91 54.39 5.91C52.50 5.91 50.95 6.90 50.93 8.65L53.31 8.64C53.35 7.99 53.69 7.62 54.28 7.62C54.82 7.62 55.13 7.95 55.17 8.33C55.20 8.57 55.20 8.72 55.20 8.88L55.20 8.99L54.73 8.99C52.19 8.99 50.68 9.97 50.68 11.56C50.68 13.01 51.84 13.78 53.07 13.78C53.76 13.78 54.39 13.61 54.92 13.27L55.23 12.49ZM54.11 12.07C53.61 12.07 53.26 11.82 53.26 11.37C53.26 10.63 54.07 10.33 55.20 10.42L55.20 10.91C55.20 11.69 54.61 12.07 54.11 12.07ZM62.26 7.73L63.91 7.73L63.91 6.16L62.26 6.16L62.26 4.23L59.74 4.23L59.74 6.16L58.55 6.16L58.55 7.73L59.74 7.73L59.74 10.85C59.74 11.27 59.74 11.62 59.77 12.05C59.85 13.20 60.41 13.78 62.27 13.78C62.80 13.78 63.27 13.73 63.76 13.65L63.76 12.08C62.57 12.14 62.33 11.97 62.27 11.21C62.26 11.02 62.26 10.74 62.26 10.49ZM66.09 3.07C65.31 3.07 64.79 3.54 64.79 4.30C64.79 5.05 65.31 5.53 66.09 5.53C66.88 5.53 67.40 5.05 67.40 4.30C67.40 3.54 66.88 3.07 66.09 3.07ZM67.35 13.58L67.35 6.10L64.83 6.10L64.83 13.58ZM72.46 5.91C70.01 5.91 68.45 7.43 68.45 9.84C68.45 12.24 70.01 13.78 72.46 13.78C74.91 13.78 76.48 12.24 76.48 9.84C76.48 7.43 74.91 5.91 72.46 5.91ZM72.46 12.07C71.57 12.07 71.02 11.33 71.02 9.84C71.02 8.34 71.57 7.62 72.46 7.62C73.36 7.62 73.91 8.34 73.91 9.84C73.91 11.33 73.36 12.07 72.46 12.07ZM85.09 7.94C84.90 6.64 83.99 5.91 82.45 5.91C81.76 5.91 81.23 6.06 80.77 6.34L80.09 7.27L80.09 6.10L77.57 6.10L77.57 13.58L80.09 13.58L80.09 10.05C80.09 8.36 80.64 7.62 81.41 7.62C82.17 7.62 82.56 8.04 82.61 8.75C82.64 9.13 82.64 9.53 82.64 9.77L82.64 13.58L85.16 13.58L85.16 9.35C85.16 8.75 85.15 8.32 85.09 7.94Z"></path></g><!----><!----></svg>